<svg width="26" height="26" viewBox="0 0 26 26" fill="none" xmlns="http://www.w3.org/2000/svg">
<path d="M17.9933 2.56157H7.20502C5.58888 2.56157 4.2666 3.87335 4.2666 5.49998V20.6014C4.2666 22.228 5.58888 23.5503 7.20502 23.5503H17.9933C19.6199 23.5503 20.9317 22.228 20.9317 20.6014V5.49998C20.9317 3.87335 19.6199 2.56157 17.9933 2.56157ZM8.28597 17.705H16.9123C17.3531 17.705 17.6994 18.0618 17.6994 18.4921C17.6994 18.9223 17.3531 19.2791 16.9123 19.2791H8.28597C7.8557 19.2791 7.49889 18.9223 7.49889 18.4921C7.49889 18.0618 7.8557 17.705 8.28597 17.705ZM7.49889 13.0979C7.49889 12.6677 7.8557 12.3108 8.28597 12.3108H16.9123C17.3531 12.3108 17.6994 12.6677 17.6994 13.0979C17.6994 13.5387 17.3531 13.885 16.9123 13.885H8.28597C7.8557 13.885 7.49889 13.5387 7.49889 13.0979ZM16.9123 8.49089H8.28597C7.8557 8.49089 7.49889 8.14457 7.49889 7.70381C7.49889 7.27354 7.8557 6.91673 8.28597 6.91673H16.9123C17.3531 6.91673 17.6994 7.27354 17.6994 7.70381C17.6994 8.14457 17.3531 8.49089 16.9123 8.49089Z" fill="black"/>
</svg>
